<svg xmlns:dc="http://purl.org/dc/elements/1.1/" xmlns:cc="http://creativecommons.org/ns#" xmlns:rdf="http://www.w3.org/1999/02/22-rdf-syntax-ns#" xmlns:svg="http://www.w3.org/2000/svg" xmlns="http://www.w3.org/2000/svg" xmlns:sodipodi="http://sodipodi.sourceforge.net/DTD/sodipodi-0.dtd" xmlns:inkscape="http://www.inkscape.org/namespaces/inkscape" version="1.1" x="0px" y="0px" viewBox="0 0 100 125"><g transform="translate(0,-952.36218)"><path style="text-indent:0;text-transform:none;direction:ltr;block-progression:tb;baseline-shift:baseline;color:#000000;enable-background:accumulate;" d="m 50,956.36218 c -25.34581,0 -45.9999999,20.65409 -45.9999999,46.00002 0,25.3457 20.6541599,46 45.9999999,46 25.34592,0 46,-20.6543 46,-46 0,-25.34591 -20.65411,-46.00002 -46,-46.00002 z m 0,10 c 19.94151,0 36,16.05849 36,36.00002 0,19.9413 -16.05852,36 -36,36 -19.94136,0 -36,-16.0587 -36,-36 0,-19.94151 16.05861,-36.00002 36,-36.00002 z m 0,7.625 -3.09375,2.4375 -23,18 6.1875,7.87502 L 50,986.70593 l 19.90625,15.59377 6.1875,-7.87502 -23,-18 L 50,973.98718 z m 0,20 -3.09375,2.4375 -23,18.00002 6.1875,7.875 L 50,1006.7059 l 19.90625,15.5938 6.1875,-7.875 -23,-18.00002 L 50,993.98718 z" fill="#000000" fill-opacity="1" stroke="none" marker="none" visibility="visible" display="inline" overflow="visible"/></g><text x="0" y="115" fill="#000000" font-size="5px" font-weight="bold" font-family="'Helvetica Neue', Helvetica, Arial-Unicode, Arial, Sans-serif">Created by Numero Uno</text><text x="0" y="120" fill="#000000" font-size="5px" font-weight="bold" font-family="'Helvetica Neue', Helvetica, Arial-Unicode, Arial, Sans-serif">from the Noun Project</text></svg>