<?xml version="1.0" encoding="UTF-8" standalone="no"?>
<!-- Generator: Adobe Illustrator 18.0.0, SVG Export Plug-In . SVG Version: 6.00 Build 0)  -->

<svg
   xmlns:dc="http://purl.org/dc/elements/1.1/"
   xmlns:cc="http://creativecommons.org/ns#"
   xmlns:rdf="http://www.w3.org/1999/02/22-rdf-syntax-ns#"
   xmlns:svg="http://www.w3.org/2000/svg"
   xmlns="http://www.w3.org/2000/svg"
   xmlns:sodipodi="http://sodipodi.sourceforge.net/DTD/sodipodi-0.dtd"
   xmlns:inkscape="http://www.inkscape.org/namespaces/inkscape"
   version="1.1"
   id="Calque_1"
   x="0px"
   y="0px"
   width="92.878677mm"
   height="112.17672mm"
   viewBox="0 0 351.03753 423.975"
   xml:space="preserve"
   sodipodi:docname="pin-afpa.svg"
   inkscape:version="0.92.2 (5c3e80d, 2017-08-06)"><metadata
     id="metadata3753"><rdf:RDF><cc:Work
         rdf:about=""><dc:format>image/svg+xml</dc:format><dc:type
           rdf:resource="http://purl.org/dc/dcmitype/StillImage" /><dc:title></dc:title></cc:Work></rdf:RDF></metadata><defs
     id="defs3751" /><sodipodi:namedview
     pagecolor="#ffffff"
     bordercolor="#666666"
     borderopacity="1"
     objecttolerance="10"
     gridtolerance="10"
     guidetolerance="10"
     inkscape:pageopacity="0"
     inkscape:pageshadow="2"
     inkscape:window-width="1680"
     inkscape:window-height="997"
     id="namedview3749"
     showgrid="false"
     fit-margin-top="0"
     fit-margin-left="0"
     fit-margin-right="0"
     fit-margin-bottom="0"
     units="mm"
     inkscape:zoom="1.0454545"
     inkscape:cx="247.25925"
     inkscape:cy="73.417425"
     inkscape:window-x="-8"
     inkscape:window-y="-8"
     inkscape:window-maximized="1"
     inkscape:current-layer="Calque_1" /><g
     id="g3746"
     transform="translate(-3.2624932,-182.225)"><linearGradient
       id="SVGID_1_"
       gradientUnits="userSpaceOnUse"
       x1="27.3692"
       y1="757.33289"
       x2="53.996399"
       y2="825.651"
       gradientTransform="matrix(6.0594,0,0,-6.0594,0,4979.9404)"><stop
         offset="0"
         style="stop-color:#86BC26"
         id="stop3731" /><stop
         offset="1"
         style="stop-color:#7FB927"
         id="stop3733" /></linearGradient><path
       style="fill:url(#SVGID_1_)"
       d="m 303,233.6 c -68.5,-68.5 -180,-68.5 -248.4,0 -68.4,68.5 -68.5,180 0,248.4 L 178.8,606.2 303,482 c 68.4,-68.4 68.4,-179.9 0,-248.4 z"
       id="path3736"
       inkscape:connector-curvature="0" /><path
       style="fill:#ffffff"
       d="m 70.3,389.9 c -18.2,0 -32.7,-14.5 -32.7,-32.7 0,-18.2 14.5,-32.7 32.7,-32.7 18.2,0 32.7,14.5 32.7,32.7 0,18.2 -14.5,32.7 -32.7,32.7 m 38.8,-67.8 c -2.4,0 -4.2,1.8 -4.2,4.2 v 7.3 C 97,322.1 84.3,315.4 71,315.4 c -23,0 -41.2,18.8 -41.2,41.2 0,23 18.8,41.2 41.2,41.2 13.9,0 26.1,-6.7 33.9,-18.2 v 13.9 c 0,2.4 1.8,4.2 4.2,4.2 2.4,0 4.2,-1.8 4.2,-4.2 v -67.3 c -0.6,-2.3 -2.4,-4.1 -4.2,-4.1 z"
       id="path3738"
       inkscape:connector-curvature="0" /><path
       style="fill:#ffffff"
       d="m 270.2,389.9 c -18.2,0 -32.7,-14.5 -32.7,-32.7 0,-18.2 14.5,-32.7 32.7,-32.7 18.2,0 32.8,14.5 32.8,32.7 0,18.2 -14.6,32.7 -32.8,32.7 m 38.2,-67.8 c -2.4,0 -4.2,1.8 -4.2,4.2 v 7.3 c -7.9,-11.5 -20.6,-18.2 -33.9,-18.2 -23,0 -41.2,18.8 -41.2,41.2 0,23 18.8,41.2 41.2,41.2 13.9,0 26.1,-6.7 33.9,-18.2 v 13.9 c 0,2.4 1.8,4.2 4.2,4.2 2.4,0 4.2,-1.8 4.2,-4.2 v -67.3 c 0.1,-2.3 -2.4,-4.1 -4.2,-4.1 z"
       id="path3740"
       inkscape:connector-curvature="0" /><path
       style="fill:#ffffff"
       d="m 183,389.9 c -18.2,0 -32.7,-14.5 -32.7,-32.7 0,-18.2 14.5,-32.7 32.7,-32.7 18.2,0 32.7,14.5 32.7,32.7 0,18.2 -14.5,32.7 -32.7,32.7 m 0,-73.9 c -13.9,0 -26.1,6.7 -33.9,18.2 v -7.9 c 0,-2.4 -1.8,-4.2 -4.2,-4.2 -2.4,0 -4.2,1.8 -4.2,4.2 v 122.4 c 0,2.4 1.8,4.2 4.2,4.2 2.4,0 4.2,-1.8 4.2,-4.2 v -68.5 c 7.9,11.5 20.6,18.2 33.9,18.2 23,0 41.2,-18.8 41.2,-41.2 0,-23 -18.8,-41.2 -41.2,-41.2 z"
       id="path3742"
       inkscape:connector-curvature="0" /><path
       style="fill:#ffffff"
       d="m 163,309.4 c 0,-2.4 -1.8,-4.2 -4.2,-4.2 h -27.9 v -8.5 c 0,-15.8 8.5,-15.8 9.1,-15.8 h 18.8 c 2.4,0 4.2,-1.8 4.2,-4.2 0,-2.4 -1.8,-4.2 -3.6,-4.2 v 0 H 140 c -0.6,0 -17.6,0 -17.6,24.2 v 8.5 h -6.7 c -2.4,0 -4.2,1.8 -4.2,4.2 0,2.4 1.8,4.2 4.2,4.2 h 6.7 v 80.6 c 0,2.4 1.8,4.2 4.2,4.2 2.4,0 4.2,-1.8 4.2,-4.2 v -80.6 h 27.9 c 2.5,0 4.3,-1.8 4.3,-4.2"
       id="path3744"
       inkscape:connector-curvature="0" /></g></svg>